# Blender v3.0.0 OBJ File: ''
# www.blender.org
mtllib untitled.mtl
o 立方体.001_立方体.004
v -0.027024 0.074952 0.907219
v -0.024220 -0.052509 0.906152
v -0.027024 0.074952 -0.895473
v -0.024220 -0.052509 -0.894406
v -0.523121 0.027253 0.492132
v -0.521571 -0.028452 0.491442
v -0.523121 0.027253 -0.480386
v -0.521571 -0.028452 -0.479696
v -0.002100 -0.095972 1.005873
v -0.002100 -0.095972 -0.994127
v -0.541674 -0.069872 -0.544210
v -0.541674 -0.069872 0.555956
v -0.023212 -0.094950 0.906152
v -0.023212 -0.094950 -0.894406
v -0.520563 -0.070893 -0.479696
v -0.520563 -0.070893 0.491442
v -0.006210 0.076953 -0.994127
v -0.006210 0.076953 1.005873
v -0.543935 0.025251 -0.544210
v -0.543935 0.025251 0.555956
v -0.026118 0.075039 -0.899767
v -0.026118 0.075039 0.911513
v -0.524027 0.027165 -0.483164
v -0.524027 0.027165 0.494910
v 0.000238 0.037950 -0.895473
v 0.000238 0.037950 0.907219
v -0.495859 -0.009750 -0.480386
v -0.495859 -0.009750 0.492132
vt 0.375000 0.000000
vt 0.625000 0.000000
vt 0.625000 0.250000
vt 0.375000 0.250000
vt 0.625000 0.500000
vt 0.375000 0.500000
vt 0.625000 0.750000
vt 0.375000 0.750000
vt 0.625000 1.000000
vt 0.375000 1.000000
vt 0.365323 0.516430
vt 0.365323 0.733570
vt 0.365323 0.733570
vt 0.365323 0.516430
vt 0.634782 0.516610
vt 0.865218 0.511046
vt 0.865218 0.738954
vt 0.634782 0.733390
vt 0.865218 0.738954
vt 0.865218 0.511046
vt 0.875000 0.500000
vt 0.875000 0.750000
vt 0.634782 0.516610
vt 0.634782 0.733390
vt 0.134256 0.510448
vt 0.134256 0.739552
vt 0.125000 0.750000
vt 0.125000 0.500000
vt 0.365744 0.515726
vt 0.365744 0.734274
vt 0.134677 0.510933
vt 0.134677 0.739067
vt 0.134677 0.510933
vt 0.134677 0.739067
vn 0.9997 0.0238 0.0000
vn -0.6408 -0.0152 -0.7676
vn -0.9997 -0.0238 0.0000
vn -0.6408 -0.0152 0.7676
vn 0.8051 0.5932 0.0000
vn -0.0483 -0.9988 0.0000
vn 0.6408 0.0152 0.7676
vn 0.6408 0.0152 -0.7676
vn -0.0957 0.9954 0.0000
vn -0.8051 -0.5932 0.0000
vn 0.5607 0.4131 -0.7176
vn 0.5607 0.4131 0.7176
usemtl None
s off
f 18/1/1 9/2/1 10/3/1 17/4/1
f 17/4/2 10/3/2 11/5/2 19/6/2
f 19/6/3 11/5/3 12/7/3 20/8/3
f 20/8/4 12/7/4 9/9/4 18/10/4
f 7/11/5 5/12/5 28/13/5 27/14/5
f 8/15/6 4/16/6 2/17/6 6/18/6
f 13/19/6 14/20/6 10/21/6 9/22/6
f 14/20/6 15/23/6 11/5/6 10/21/6
f 15/23/6 16/24/6 12/7/6 11/5/6
f 16/24/6 13/19/6 9/22/6 12/7/6
f 2/17/3 4/16/3 14/20/3 13/19/3
f 4/16/7 8/15/7 15/23/7 14/20/7
f 8/15/1 6/18/1 16/24/1 15/23/1
f 6/18/8 2/17/8 13/19/8 16/24/8
f 21/25/9 22/26/9 18/27/9 17/28/9
f 23/29/9 21/25/9 17/28/9 19/6/9
f 24/30/9 23/29/9 19/6/9 20/8/9
f 22/26/9 24/30/9 20/8/9 18/27/9
f 3/31/9 1/32/9 22/26/9 21/25/9
f 7/11/9 3/31/9 21/25/9 23/29/9
f 5/12/9 7/11/9 23/29/9 24/30/9
f 1/32/9 5/12/9 24/30/9 22/26/9
f 25/33/9 27/14/9 28/13/9 26/34/9
f 1/32/10 3/31/10 25/33/10 26/34/10
f 5/12/11 1/32/11 26/34/11 28/13/11
f 3/31/12 7/11/12 27/14/12 25/33/12
o 立方体.002_立方体.007
v 0.011645 -0.090447 -0.895473
v 0.012188 0.037043 -0.894406
v 0.011645 -0.090447 0.907219
v 0.012188 0.037043 0.906152
v 0.508823 -0.055788 -0.480386
v 0.508737 -0.000062 -0.479696
v 0.508823 -0.055788 0.492132
v 0.508737 -0.000062 0.491442
v -0.008783 0.081072 -0.994127
v -0.008783 0.081072 1.005873
v 0.529920 0.040816 0.555956
v 0.529920 0.040816 -0.544210
v 0.012294 0.079497 -0.894406
v 0.012294 0.079497 0.906152
v 0.508843 0.042391 0.491442
v 0.508843 0.042391 -0.479696
v -0.009215 -0.091902 1.005873
v -0.009215 -0.091902 -0.994127
v 0.529683 -0.054333 0.555956
v 0.529683 -0.054333 -0.544210
v 0.010737 -0.090511 0.911513
v 0.010737 -0.090511 -0.899767
v 0.509731 -0.055724 0.494910
v 0.509731 -0.055724 -0.483164
v -0.014637 -0.052742 0.907219
v -0.014637 -0.052742 -0.895473
v 0.482542 -0.018082 0.492132
v 0.482542 -0.018082 -0.480386
vt 0.375000 0.000000
vt 0.375000 0.250000
vt 0.625000 0.250000
vt 0.625000 0.000000
vt 0.375000 0.500000
vt 0.625000 0.500000
vt 0.375000 0.750000
vt 0.625000 0.750000
vt 0.375000 1.000000
vt 0.625000 1.000000
vt 0.365323 0.516430
vt 0.365323 0.516430
vt 0.365323 0.733570
vt 0.365323 0.733570
vt 0.634782 0.516610
vt 0.634782 0.733390
vt 0.865218 0.738954
vt 0.865218 0.511046
vt 0.865218 0.738954
vt 0.875000 0.750000
vt 0.875000 0.500000
vt 0.865218 0.511046
vt 0.634782 0.516610
vt 0.634782 0.733390
vt 0.134256 0.510448
vt 0.125000 0.500000
vt 0.125000 0.750000
vt 0.134256 0.739552
vt 0.365744 0.515726
vt 0.365744 0.734274
vt 0.134677 0.510933
vt 0.134677 0.739067
vt 0.134677 0.510933
vt 0.134677 0.739067
vn -1.0000 0.0025 0.0000
vn 0.6410 -0.0016 0.7676
vn 1.0000 -0.0025 0.0000
vn 0.6410 -0.0016 -0.7676
vn -0.8204 -0.5718 0.0000
vn 0.0745 0.9972 0.0000
vn -0.6410 0.0016 -0.7676
vn -0.6410 0.0016 0.7676
vn 0.0695 -0.9976 0.0000
vn 0.8204 0.5718 0.0000
vn -0.5714 -0.3982 0.7176
vn -0.5714 -0.3982 -0.7176
usemtl None
s off
f 46/35/13 45/36/13 38/37/13 37/38/13
f 45/36/14 47/39/14 39/40/14 38/37/14
f 47/39/15 48/41/15 40/42/15 39/40/15
f 48/41/16 46/43/16 37/44/16 40/42/16
f 35/45/17 55/46/17 56/47/17 33/48/17
f 36/49/18 34/50/18 30/51/18 32/52/18
f 41/53/18 37/54/18 38/55/18 42/56/18
f 42/56/18 38/55/18 39/40/18 43/57/18
f 43/57/18 39/40/18 40/42/18 44/58/18
f 44/58/18 40/42/18 37/54/18 41/53/18
f 30/51/15 41/53/15 42/56/15 32/52/15
f 32/52/19 42/56/19 43/57/19 36/49/19
f 36/49/13 43/57/13 44/58/13 34/50/13
f 34/50/20 44/58/20 41/53/20 30/51/20
f 49/59/21 45/60/21 46/61/21 50/62/21
f 51/63/21 47/39/21 45/60/21 49/59/21
f 52/64/21 48/41/21 47/39/21 51/63/21
f 50/62/21 46/61/21 48/41/21 52/64/21
f 31/65/21 49/59/21 50/62/21 29/66/21
f 35/45/21 51/63/21 49/59/21 31/65/21
f 33/48/21 52/64/21 51/63/21 35/45/21
f 29/66/21 50/62/21 52/64/21 33/48/21
f 53/67/21 54/68/21 56/47/21 55/46/21
f 29/66/22 54/68/22 53/67/22 31/65/22
f 33/48/23 56/47/23 54/68/23 29/66/23
f 31/65/24 53/67/24 55/46/24 35/45/24
o 立方体_立方体.008
v -0.137588 -0.010878 0.321391
v -0.137588 0.101843 0.321391
v -0.137588 -0.010878 -0.343815
v -0.137588 0.101843 -0.343815
v 0.116922 -0.010878 0.321391
v 0.116922 0.101843 0.321391
v 0.116922 -0.010878 -0.343815
v 0.116922 0.101843 -0.343815
vt 0.375000 0.000000
vt 0.625000 0.000000
vt 0.625000 0.250000
vt 0.375000 0.250000
vt 0.625000 0.500000
vt 0.375000 0.500000
vt 0.625000 0.750000
vt 0.375000 0.750000
vt 0.625000 1.000000
vt 0.375000 1.000000
vt 0.125000 0.500000
vt 0.125000 0.750000
vt 0.875000 0.500000
vt 0.875000 0.750000
vn -1.0000 0.0000 0.0000
vn 0.0000 0.0000 -1.0000
vn 1.0000 0.0000 0.0000
vn 0.0000 0.0000 1.0000
vn 0.0000 -1.0000 0.0000
vn 0.0000 1.0000 0.0000
usemtl None
s off
f 57/69/25 58/70/25 60/71/25 59/72/25
f 59/72/26 60/71/26 64/73/26 63/74/26
f 63/74/27 64/73/27 62/75/27 61/76/27
f 61/76/28 62/75/28 58/77/28 57/78/28
f 59/79/29 63/74/29 61/76/29 57/80/29
f 64/73/30 60/81/30 58/82/30 62/75/30
